# xmcd
#
# Track frame offsets: 
#        150
#        21525
#        34575
#        60675
#        77100
#        95475
#        114300
#        143850
#        158325
#        179625
#        207525
#        221550
#        241350
#        260175
#
# Disc length: 3735 seconds
#
# Revision: 2
# Processed by: cddbd v1.5.2PL0 Copyright (c) Steve Scherf et al.
# Submitted via: ExactAudioCopy v0.95a5
#
DISCID=cc0e950e
DTITLE=贺.伊拉克 - 梦幻音乐系列风中的残烛
DYEAR=1998
DGENRE=Classical
TTITLE0=别为我哭泣，阿根廷
TTITLE1=爱情的故事
TTITLE2=友谊天长地久
TTITLE3=今夜庆祝我俩的爱
TTITLE4=风中的蜡烛
TTITLE5=在此等候
TTITLE6=爱情万年青
TTITLE7=往日情怀
TTITLE8=带走我的呼吸
TTITLE9=无心快语
TTITLE10=美丽的星期天
TTITLE11=风的颜色
TTITLE12=电话诉钟情
TTITLE13=卡萨布兰卡
EXTD=
EXTT0=
EXTT1=
EXTT2=
EXTT3=
EXTT4=
EXTT5=
EXTT6=
EXTT7=
EXTT8=
EXTT9=
EXTT10=
EXTT11=
EXTT12=
EXTT13=
PLAYORDER=
